# xmcd
#
# Track frame offsets: 
#        150
#        14761
#        29799
#        45922
#        61075
#        80398
#        94326
#        109918
#        130435
#        151190
#
# Disc length: 2395 seconds
#
# Revision: 0
# Processed by: cddbd v1.5.2PL0 Copyright (c) Steve Scherf et al.
# Submitted via: ExactAudioCopyFreeDBPlugin 1.0
#
DISCID=7f09590a
DTITLE=Tessy Lou and the Shotgun Stars - Somewhere in Texas
DYEAR=2014
DGENRE=Country
TTITLE0=Fool's Moon
TTITLE1=Nobody's Girl
TTITLE2=My Heart You'll Keep
TTITLE3=Scotty's Place
TTITLE4=My Heart Keeps Believing
TTITLE5=She Already Loves Someone
TTITLE6=She's Your Angel
TTITLE7=Woman That I Am
TTITLE8=Walls of Time
TTITLE9=Losing Ground Again
EXTD=
EXTT0=
EXTT1=
EXTT2=
EXTT3=
EXTT4=
EXTT5=
EXTT6=
EXTT7=
EXTT8=
EXTT9=
PLAYORDER=
